HIERARCHY
ROOT hip
{
  OFFSET 0 0 0
  CHANNELS 6 Xposition Yposition Zposition Zrotation Yrotation Xrotation
  JOINT abdomen
  {
    OFFSET 0 20.6881 -0.73152
    CHANNELS 3 Zrotation Xrotation Yrotation
    JOINT chest
    {
      OFFSET 0 11.7043 -0.48768
      CHANNELS 3 Zrotation Xrotation Yrotation
      JOINT neck
      {
        OFFSET 0 22.1894 -2.19456
        CHANNELS 3 Zrotation Xrotation Yrotation
        JOINT head
        {
          OFFSET -0.24384 7.07133 1.2192
          CHANNELS 3 Zrotation Xrotation Yrotation
          JOINT leftEye
          {
            OFFSET 4.14528 8.04674 8.04672
            CHANNELS 3 Zrotation Xrotation Yrotation
            End Site
            {
              OFFSET 1 0 0
            }
          }
          JOINT rightEye
          {
            OFFSET -3.6576 8.04674 8.04672
            CHANNELS 3 Zrotation Xrotation Yrotation
            End Site
            {
              OFFSET 1 0 0
            }
          }
        }
      }
      JOINT rCollar
      {
        OFFSET -2.68224 19.2634 -4.8768
        CHANNELS 3 Zrotation Xrotation Yrotation
        JOINT rShldr
        {
          OFFSET -8.77824 -1.95073 1.46304
          CHANNELS 3 Zrotation Xrotation Yrotation
          JOINT rForeArm
          {
            OFFSET -28.1742 -1.7115 0.48768
            CHANNELS 3 Zrotation Xrotation Yrotation
            JOINT rHand
            {
              OFFSET -22.5879 0.773209 7.07136
              CHANNELS 3 Zrotation Xrotation Yrotation
              JOINT rThumb1
              {
                OFFSET -1.2192 -0.487915 3.41376
                CHANNELS 3 Zrotation Xrotation Yrotation
                JOINT rThumb2
                {
                  OFFSET -3.37035 -0.52449 3.41376
                  CHANNELS 3 Zrotation Xrotation Yrotation
                  End Site
                  {
                    OFFSET -1.78271 -1.18214 1.43049
                  }
                }
              }
              JOINT rIndex1
              {
                OFFSET -7.75947 0.938293 5.60832
                CHANNELS 3 Zrotation Xrotation Yrotation
                JOINT rIndex2
                {
                  OFFSET -2.54057 -0.884171 1.56538
                  CHANNELS 3 Zrotation Xrotation Yrotation
                  End Site
                  {
                    OFFSET -1.62519 -0.234802 1.16502
                  }
                }
              }
              JOINT rMid1
              {
                OFFSET -8.24714 1.18213 3.41376
                CHANNELS 3 Zrotation Xrotation Yrotation
                JOINT rMid2
                {
                  OFFSET -3.10165 -0.590103 1.0647
                  CHANNELS 3 Zrotation Xrotation Yrotation
                  End Site
                  {
                    OFFSET -2.48547 -0.328903 0.83742
                  }
                }
              }
              JOINT rRing1
              {
                OFFSET -8.82822 0.546677 1.51678
                CHANNELS 3 Zrotation Xrotation Yrotation
                JOINT rRing2
                {
                  OFFSET -2.60934 -0.819778 -0.0198488
                  CHANNELS 3 Zrotation Xrotation Yrotation
                  End Site
                  {
                    OFFSET -2.33842 -0.294052 0.168128
                  }
                }
              }
              JOINT rPinky1
              {
                OFFSET -8.27202 -0.0477905 -0.4584
                CHANNELS 3 Zrotation Xrotation Yrotation
                JOINT rPinky2
                {
                  OFFSET -1.82734 -0.647385 -0.700984
                  CHANNELS 3 Zrotation Xrotation Yrotation
                  End Site
                  {
                    OFFSET -1.69225 -0.51767 -0.607171
                  }
                }
              }
            }
          }
        }
      }
      JOINT lCollar
      {
        OFFSET 2.68224 19.2634 -4.8768
        CHANNELS 3 Zrotation Xrotation Yrotation
        JOINT lShldr
        {
          OFFSET 8.77824 -1.95073 1.46304
          CHANNELS 3 Zrotation Xrotation Yrotation
          JOINT lForeArm
          {
            OFFSET 28.1742 -1.7115 0.48768
            CHANNELS 3 Zrotation Xrotation Yrotation
            JOINT lHand
            {
              OFFSET 22.5879 0.773209 7.07136
              CHANNELS 3 Zrotation Xrotation Yrotation
              JOINT lThumb1
              {
                OFFSET 1.2192 -0.487915 3.41376
                CHANNELS 3 Zrotation Xrotation Yrotation
                JOINT lThumb2
                {
                  OFFSET 3.37035 -0.52449 3.41376
                  CHANNELS 3 Zrotation Xrotation Yrotation
                  End Site
                  {
                    OFFSET 1.78271 -1.18214 1.43049
                  }
                }
              }
              JOINT lIndex1
              {
                OFFSET 7.75947 0.938293 5.60832
                CHANNELS 3 Zrotation Xrotation Yrotation
                JOINT lIndex2
                {
                  OFFSET 2.54057 -0.884171 1.56538
                  CHANNELS 3 Zrotation Xrotation Yrotation
                  End Site
                  {
                    OFFSET 1.62519 -0.234802 1.16502
                  }
                }
              }
              JOINT lMid1
              {
                OFFSET 8.24714 1.18213 3.41376
                CHANNELS 3 Zrotation Xrotation Yrotation
                JOINT lMid2
                {
                  OFFSET 3.10165 -0.590103 1.0647
                  CHANNELS 3 Zrotation Xrotation Yrotation
                  End Site
                  {
                    OFFSET 2.48547 -0.328903 0.83742
                  }
                }
              }
              JOINT lRing1
              {
                OFFSET 8.82822 0.546677 1.51678
                CHANNELS 3 Zrotation Xrotation Yrotation
                JOINT lRing2
                {
                  OFFSET 2.60934 -0.819778 -0.0198488
                  CHANNELS 3 Zrotation Xrotation Yrotation
                  End Site
                  {
                    OFFSET 2.33842 -0.294052 0.168128
                  }
                }
              }
              JOINT lPinky1
              {
                OFFSET 8.27202 -0.0477905 -0.4584
                CHANNELS 3 Zrotation Xrotation Yrotation
                JOINT lPinky2
                {
                  OFFSET 1.82734 -0.647385 -0.700984
                  CHANNELS 3 Zrotation Xrotation Yrotation
                  End Site
                  {
                    OFFSET 1.69225 -0.51767 -0.607171
                  }
                }
              }
            }
          }
        }
      }
    }
  }
  JOINT rButtock
  {
    OFFSET -8.77824 4.35084 1.2192
    CHANNELS 3 Zrotation Xrotation Yrotation
    JOINT rThigh
    {
      OFFSET 0 -1.70687 -2.19456
      CHANNELS 3 Zrotation Xrotation Yrotation
      JOINT rShin
      {
        OFFSET 0 -36.8199 0.73152
        CHANNELS 3 Zrotation Xrotation Yrotation
        JOINT rFoot
        {
          OFFSET 0.73152 -45.1104 -5.12064
          CHANNELS 3 Zrotation Xrotation Yrotation
          End Site
          {
            OFFSET -1.1221 -3.69964 12.103
          }
        }
      }
    }
  }
  JOINT lButtock
  {
    OFFSET 8.77824 4.35084 1.2192
    CHANNELS 3 Zrotation Xrotation Yrotation
    JOINT lThigh
    {
      OFFSET 0 -1.70687 -2.19456
      CHANNELS 3 Zrotation Xrotation Yrotation
      JOINT lShin
      {
        OFFSET 0 -36.8199 0.73152
        CHANNELS 3 Zrotation Xrotation Yrotation
        JOINT lFoot
        {
          OFFSET -0.73152 -45.1104 -5.12064
          CHANNELS 3 Zrotation Xrotation Yrotation
          End Site
          {
            OFFSET 1.1221 -3.69964 12.103
          }
        }
      }
    }
  }
}
MOTION
Frames:	4
Frame Time:	0.03333
0.011112727224826813 61.80012822151184 0.12132497504353523 -2.3945415019989014 2.3583569526672363 5.762959003448486 -2.347414493560791 13.740030288696289 3.0829737186431885 3.1581835746765137 -9.109197616577148 0.981139063835144 -5.68848991394043 14.861412048339844 -5.3412861824035645 8.588519096374512 -24.54054069519043 -7.9202561378479 -0.11003518104553223 -0.09964164346456528 0.0075377714820206165 0.13845324516296387 0.03998660668730736 -0.07942987978458405 0.03452615812420845 -0.008839196525514126 -0.055282462388277054 52.399986267089844 38.05791091918945 10.477635383605957 -28.12936782836914 -31.44065284729004 69.57735443115234 0.07071805000305176 2.099757671356201 0.10631529986858368 -0.004650596994906664 -0.051158607006073 -0.02310357242822647 0.03297607973217964 0.06750117987394333 -0.055989500135183334 0.027219343930482864 -0.069539874792099 0.06269198656082153 7.727183818817139 5.471489429473877 0.4035593271255493 -0.014625154435634613 0.008278440684080124 0.011236880905926228 2.9241788387298584 0.9836195111274719 0.16829119622707367 -0.04584793746471405 0.025489268824458122 0.012144173495471478 10.32807731628418 0.72401362657547 0.07487515360116959 0.08110779523849487 0.10165585577487946 0.010734699666500092 2.328073024749756 -0.7788674235343933 -0.1864824891090393 0.021684158593416214 -0.12086106091737747 0.0650486871600151 -58.030731201171875 38.77189254760742 -22.06009864807129 28.282621383666992 -33.916812896728516 -73.66513061523438 0.3429185450077057 -18.017414093017578 2.625340461730957 -0.017222648486495018 -0.02985803782939911 0.007368339691311121 -0.01574030891060829 -0.05950314551591873 0.06936738640069962 -0.02114437334239483 -0.07829201221466064 0.062016602605581284 -7.837863922119141 5.563117980957031 -0.42040637135505676 -0.002521062968298793 -0.0033594255801290274 0.013141120783984661 -2.8839950561523438 0.9730295538902283 -0.1407759040594101 0.028863202780485153 -0.020266881212592125 -0.011922831647098064 -10.174129486083984 0.7188804745674133 -0.0779629722237587 -0.012761726975440979 -0.08531409502029419 -0.046283576637506485 -2.1252543926239014 -0.7443501949310303 0.21841655671596527 0.030580470338463783 -0.04424847289919853 -0.04241446778178215 -28.30068016052246 -44.39240646362305 -23.663585662841797 -1.3351495265960693 66.9561767578125 1.9517954587936401 -4.92189359664917 -12.318319320678711 -13.515530586242676 0.00012515217531472445 0.04670131206512451 0.021539587527513504 34.51708984375 -44.168453216552734 27.186342239379883 1.6553107500076294 69.87383270263672 -2.281301498413086 4.363417625427246 -11.16066837310791 14.095964431762695
0.08352696895599365 62.24893927574158 0.07760962471365929 -2.179114818572998 1.0034301280975342 5.258424758911133 -2.1810524463653564 13.751843452453613 2.7573297023773193 2.977932929992676 -8.993858337402344 0.9734517335891724 -5.446447849273682 14.950972557067871 -5.366912841796875 8.011662483215332 -24.17544937133789 -8.178568840026855 -0.10751902312040329 -0.05383245646953583 0.08337926864624023 0.166377991437912 0.027243364602327347 -0.0581696592271328 0.02290605939924717 0.028641387820243835 -0.038765888661146164 53.956512451171875 37.180938720703125 8.502496719360352 -28.242908477783203 -31.369510650634766 69.61695098876953 0.19481080770492554 1.8327372074127197 -0.10734736919403076 -0.09693323820829391 -0.022485874593257904 -0.03641973435878754 0.0018114570993930101 0.05559602752327919 -0.07575298845767975 -0.02693795971572399 -0.1076572835445404 0.07238968461751938 7.721716403961182 5.416374683380127 0.43536898493766785 0.011828719638288021 -0.05653097853064537 0.04343155398964882 2.898973226547241 0.9477199912071228 0.17843754589557648 0.010217555798590183 0.028746001422405243 -0.006142055615782738 10.252129554748535 0.7797501683235168 0.0926467776298523 0.0030845103319734335 0.02611236274242401 -0.01488108467310667 2.30295729637146 -0.7695211172103882 -0.11653202772140503 0.0370391309261322 -0.017813729122281075 0.0629749670624733 -58.46076583862305 39.362701416015625 -20.80416488647461 28.207189559936523 -33.40024185180664 -73.02377319335938 0.16091452538967133 -16.371667861938477 2.469572067260742 -0.08183838427066803 -0.000596330501139164 0.026746995747089386 0.009041658602654934 -0.009746694006025791 0.020514577627182007 -0.006692809518426657 0.007358835078775883 0.05836508050560951 -7.767822265625 5.565524578094482 -0.4302976131439209 0.05870009958744049 -0.021459076553583145 0.006383910309523344 -2.896106004714966 1.059084415435791 -0.061378758400678635 0.019421782344579697 -0.0605708509683609 0.0046608601696789265 -10.27595329284668 0.6622748374938965 -0.0592292845249176 -0.0758197233080864 -0.06999171525239944 0.0003445885085966438 -2.1406664848327637 -0.7627255320549011 0.21068385243415833 0.005169327836483717 0.006535389460623264 -0.03675684332847595 -27.79013442993164 -43.566802978515625 -22.81654167175293 -1.048953652381897 66.74100494384766 1.657523274421692 -5.3837385177612305 -13.084190368652344 -13.967851638793945 0.0300604235380888 0.04545651003718376 0.019371798262000084 33.36661911010742 -43.59874725341797 26.71914291381836 1.2343847751617432 69.91651916503906 -1.7514913082122803 4.224716663360596 -10.185136795043945 14.024619102478027
-0.019296258687973022 51.84357762336731 -1.793113350868225 -8.7754545211792 13.410719871520996 23.134017944335938 2.2848756313323975 24.98387908935547 -6.488063335418701 1.5749058723449707 -11.611042976379395 -2.143981456756592 -6.406285762786865 21.28012466430664 -1.868430733680725 13.295210838317871 -49.26041030883789 2.858060121536255 -0.17810097336769104 0.1473536491394043 -0.02045489102602005 -0.016614019870758057 -0.10183843225240707 -0.07386387139558792 -0.0013433085987344384 -0.05037730187177658 -0.05444783717393875 28.27400016784668 24.81903839111328 41.76844787597656 -23.975305557250977 -18.146827697753906 48.47631072998047 -0.4227803349494934 -22.72261619567871 -3.9020326137542725 0.07859063148498535 0.02899145893752575 -0.0836629644036293 -0.3139669597148895 -0.0647507831454277 0.017825547605752945 0.037841275334358215 0.026020361110568047 0.1543242633342743 7.590320587158203 5.473352432250977 0.3744957447052002 -0.12431639432907104 -0.21960760653018951 0.07193677872419357 2.8464033603668213 0.6585007309913635 0.1302599459886551 -0.26014500856399536 -0.15934370458126068 0.08113379776477814 10.328840255737305 0.9141519069671631 0.055623333901166916 -0.001067846780642867 -0.0560852587223053 -0.48003458976745605 2.4752607345581055 -0.5599524974822998 -0.23147878050804138 0.16219621896743774 -0.02126542292535305 0.09450528025627136 -20.782878875732422 64.97779083251953 -80.79893493652344 27.976890563964844 -35.35515213012695 -77.18966674804688 1.6479768753051758 -37.38918685913086 5.68914270401001 0.12571194767951965 -0.366720974445343 -0.10538257658481598 0.030394580215215683 0.24817799031734467 0.06140287220478058 0.149198979139328 0.3425937294960022 0.01852172054350376 -7.983959197998047 5.602938175201416 -0.5477785468101501 -0.12526723742485046 -0.30967196822166443 -0.26451995968818665 -3.0275847911834717 1.068574070930481 -0.23296795785427094 0.06909496337175369 -0.16919055581092834 -0.04642839357256889 -9.953797340393066 0.5375617146492004 -0.12904849648475647 -0.1808232069015503 0.07427385449409485 -0.009129157289862633 -2.161473035812378 -0.942893922328949 0.05003888159990311 0.15044420957565308 0.05692732334136963 0.12231177091598511 10.343731880187988 -78.01124572753906 12.094928741455078 -1.1104319095611572 69.04611206054688 -0.11261425167322159 3.8345119953155518 14.698604583740234 2.7522737979888916 0.3495153784751892 -0.2184634804725647 0.00764541607350111 -5.632645130157471 -66.7827377319336 -18.026378631591797 174.90216064453125 81.43621826171875 -175.4881591796875 0.6833041906356812 -3.7669668197631836 15.087732315063477
-0.1584213227033615 39.39389884471893 -5.782481282949448 -8.203740119934082 10.915946960449219 19.68535614013672 2.778027057647705 27.499616622924805 -6.982827663421631 1.2773523330688477 -12.795548439025879 -3.489481210708618 -7.0532684326171875 20.13515853881836 -0.5195019245147705 16.876461029052734 -49.981475830078125 6.3563079833984375 -0.2551591098308563 0.13380683958530426 0.1391451060771942 0.05888993665575981 0.06468921899795532 -0.14027103781700134 0.03928796201944351 0.21364864706993103 0.01600481942296028 23.30978775024414 16.90304183959961 49.50904846191406 -22.840927124023438 -17.873069763183594 46.72783660888672 -0.47150343656539917 -23.36176872253418 -3.6332461833953857 -0.08092206716537476 -0.07377418875694275 0.19179509580135345 -0.4929751455783844 -0.08667510747909546 0.15093345940113068 0.33509141206741333 0.12334109842777252 -0.058330606669187546 7.789438724517822 5.264880180358887 0.4554353356361389 0.09198704361915588 -0.2313729226589203 0.00035510712768882513 2.4311227798461914 0.6878876686096191 0.11277611553668976 -0.6098175048828125 -0.3904955983161926 -0.021100293844938278 9.899186134338379 0.3049076497554779 0.08746004104614258 -0.15584106743335724 -0.17129607498645782 -0.8174022436141968 2.580998420715332 -0.6181554198265076 0.006538181100040674 0.22300787270069122 0.05245762690901756 -0.10224001109600067 -5.566252708435059 54.228675842285156 -107.87339782714844 28.17173957824707 -31.91929054260254 -71.45475006103516 0.6025572419166565 -29.668575286865234 4.29128885269165 0.4402139186859131 -0.30537480115890503 -0.10295001417398453 -0.1645927131175995 0.09649600088596344 -0.3370492160320282 0.31042566895484924 0.6157628893852234 -0.025873377919197083 -8.448922157287598 5.1729416847229 -0.6538205742835999 -0.28784090280532837 -0.4507918953895569 -0.06444346159696579 -3.120927572250366 0.9711255431175232 -0.37937691807746887 -0.049738623201847076 0.07033488899469376 0.13055714964866638 -9.91159725189209 0.33193689584732056 -0.10092093795537949 -0.1444244682788849 0.047377485781908035 -0.13362067937850952 -2.1212594509124756 -1.1111745834350586 0.33059972524642944 0.24718111753463745 0.09720674902200699 0.3994843065738678 19.168466567993164 -75.24970245361328 17.27264976501465 -3.4250476360321045 68.26445007324219 2.5230674743652344 3.2440853118896484 11.677502632141113 -7.527573585510254 0.5797236561775208 -0.43606704473495483 0.31425365805625916 -13.328964233398438 -72.78511810302734 -19.118864059448242 178.56787109375 69.0797348022461 -179.7804412841797 1.6032042503356934 -2.9832935333251953 18.84525489807129
